PathFileType	4	(X/Y/Z)	/Users/itak/Documents/Research/Walk-IL/dataset/trc/00274_00010.trc
DataRate	CameraRate	NumFrames	NumMarkers	Units	OrigDataRate	OrigDataStartFrame	OrigNumFrames
100.000000	100.000000	4	53	mm	100.000000	143	575
Frame#	Time	RPSI			LPSI			L3			STRN			T10			C7			CLAV			RBAK			LBAK			LSHO			LUPA			LAEL			LAOL			LWTS			LWPS			LFRA			LIFD			LHPS			LHTS			RSHO			RUPA			RAEL			RAOL			RWTS			RWPS			RFRA			RIFD			RHTS			RHPS			RBHD			LFHD			RFHD			LBHD			LHIP			RHIP			RASI			LASI			LKNE			LTHI			LANK			LTIP			LTOE			LMT1			LMT5			LHEE			RKNE			RTHI			RANK			RTIP			RTOE			RMT1			RMT5			RHEE			
		X1	Y1	Z1	X2	Y2	Z2	X3	Y3	Z3	X4	Y4	Z4	X5	Y5	Z5	X6	Y6	Z6	X7	Y7	Z7	X8	Y8	Z8	X9	Y9	Z9	X10	Y10	Z10	X11	Y11	Z11	X12	Y12	Z12	X13	Y13	Z13	X14	Y14	Z14	X15	Y15	Z15	X16	Y16	Z16	X17	Y17	Z17	X18	Y18	Z18	X19	Y19	Z19	X20	Y20	Z20	X21	Y21	Z21	X22	Y22	Z22	X23	Y23	Z23	X24	Y24	Z24	X25	Y25	Z25	X26	Y26	Z26	X27	Y27	Z27	X28	Y28	Z28	X29	Y29	Z29	X30	Y30	Z30	X31	Y31	Z31	X32	Y32	Z32	X33	Y33	Z33	X34	Y34	Z34	X35	Y35	Z35	X36	Y36	Z36	X37	Y37	Z37	X38	Y38	Z38	X39	Y39	Z39	X40	Y40	Z40	X41	Y41	Z41	X42	Y42	Z42	X43	Y43	Z43	X44	Y44	Z44	X45	Y45	Z45	X46	Y46	Z46	X47	Y47	Z47	X48	Y48	Z48	X49	Y49	Z49	X50	Y50	Z50	X51	Y51	Z51	X52	Y52	Z52	X53	Y53	Z53	

144	1.43	833.8408813476562	997.3564453125	82.49846649169922	836.7235107421875	990.6383666992188	-91.35162353515625	854.9741821289062	1066.953491210938	-8.225340843200684	1101.552368164062	1248.25390625	-7.279756546020508	840.0499877929688	1178.268310546875	-9.523673057556152	873.9407958984375	1423.331665039062	-25.93688774108887	1036.983642578125	1348.872436523438	-12.5477933883667	825.5934448242188	1285.4755859375	52.75637054443359	860.1918334960938	1383.166381835938	-125.4859619140625	958.32666015625	1397.849731445312	-177.8290405273438	942.4281005859375	1279.598876953125	-255.7825622558594	959.2764282226562	1076.064697265625	-271.0620422363281	887.6859130859375	1061.674194335938	-223.2915496826172	1030.544311523438	853.0856323242188	-208.3624572753906	1009.427795410156	841.9727783203125	-276.0402526855469	976.2017211914062	971.8486328125	-276.8010864257812	1027.7177734375	664.3667602539062	-208.7130889892578	1010.556701660156	753.5518798828125	-273.5577087402344	1054.772583007812	752.719482421875	-224.1797332763672	939.5692749023438	1405.579467773438	136.4570770263672	935.0164794921875	1347.747192382812	204.1765594482422	941.7777099609375	1083.112670898438	260.4613647460938	902.1820678710938	1071.233764648438	173.0884857177734	1056.006591796875	868.6246337890625	201.7831878662109	1020.391174316406	860.5487670898438	278.3812561035156	972.7858276367188	1017.273315429688	271.6769714355469	1080.386474609375	685.2996215820312	199.4767913818359	1097.394409179688	756.7196044921875	215.9324340820312	1053.5244140625	751.2172241210938	270.4434814453125	883.4268188476562	1567.9599609375	54.90559768676758	1036.71533203125	1640.8310546875	-71.82758331298828	1042.133911132812	1635.556640625	20.02624130249023	877.5183715820312	1565.495849609375	-90.956787109375	906.2279052734375	944.0866088867188	-186.5147399902344	933.162353515625	947.8502807617188	185.580322265625	1053.352783203125	956.4746704101562	116.3545913696289	1043.423217773438	955.3658447265625	-134.8976135253906	984.7933349609375	480.8050842285156	-164.8237609863281	975.6813354492188	621.1525268554688	-183.9943237304688	882.231689453125	39.35927581787109	-148.6033630371094	926.5903930664062	256.3487854003906	-167.1142272949219	1092.629638671875	27.76907920837402	-94.97965240478516	1021.308410644531	20.70626640319824	-54.40338897705078	1006.550903320312	35.40251159667969	-164.2821197509766	839.8818359375	32.25768661499023	-87.93839263916016	985.2689819335938	476.0976867675781	150.2963714599609	1002.808959960938	738.79052734375	184.1272277832031	904.2149047851562	35.76255798339844	121.2188110351562	990.09423828125	350.9035339355469	136.9713439941406	1102.22509765625	33.94967651367188	78.68724060058594	1046.305053710938	32.03883361816406	36.20098114013672	1007.332885742188	26.33673477172852	147.1083374023438	853.2095336914062	32.93337631225586	68.82855987548828	
145	1.44	833.5014038085938	997.2202758789062	82.95926666259766	836.4825439453125	990.6365356445312	-90.92171478271484	854.6408081054688	1066.939331054688	-7.727145671844482	1101.439208984375	1248.18212890625	-6.723397254943848	839.9111938476562	1178.321899414062	-9.011519432067871	873.8564453125	1423.344848632812	-25.49364280700684	1036.896362304688	1348.823608398438	-12.04219055175781	825.3696899414062	1285.568725585938	53.17941665649414	860.099365234375	1383.121459960938	-124.9181976318359	958.3080444335938	1397.81787109375	-177.3544769287109	942.3301391601562	1279.557861328125	-255.2653656005859	959.0846557617188	1076.047973632812	-270.5154724121094	887.4820556640625	1061.647338867188	-222.6220855712891	1030.88916015625	853.3512573242188	-207.8567352294922	1009.57275390625	842.0578002929688	-275.4118041992188	976.0631713867188	971.8764038085938	-276.2259826660156	1028.570068359375	664.6107177734375	-208.0223236083984	1010.989440917969	753.7694702148438	-272.9014282226562	1055.281005859375	753.00634765625	-223.6194610595703	939.5031127929688	1405.58154296875	136.9402923583984	934.8623657226562	1347.779052734375	204.6352844238281	941.4425659179688	1083.139526367188	260.9761352539062	901.7933349609375	1071.29248046875	173.6156158447266	1055.47900390625	868.549072265625	202.2678680419922	1019.980102539062	860.512451171875	278.9165954589844	972.4219360351562	1017.271240234375	272.2058715820312	1079.676513671875	685.1917114257812	199.9181365966797	1096.804809570312	756.618408203125	216.3976745605469	1052.84912109375	751.1227416992188	270.8837280273438	883.15283203125	1567.93505859375	55.26518630981445	1036.508666992188	1640.840942382812	-71.56943511962891	1041.945190429688	1635.623168945312	20.33253288269043	877.3663330078125	1565.347778320312	-90.58487701416016	905.938720703125	944.12548828125	-186.1513519287109	932.970947265625	947.716796875	186.0789489746094	1053.05810546875	956.4049072265625	116.8086700439453	1043.179565429688	955.3587036132812	-134.4582061767578	984.8165283203125	480.8253784179688	-164.6891174316406	975.1461181640625	621.17529296875	-183.9901123046875	882.2444458007812	39.38287734985352	-148.5982513427734	926.6577758789062	256.3768005371094	-167.0554351806641	1092.650634765625	27.74267387390137	-94.98959350585938	1021.328674316406	20.70908355712891	-54.42272186279297	1006.564208984375	35.38084030151367	-164.2911987304688	839.8800048828125	32.29214477539062	-87.93675231933594	985.6254272460938	475.9747009277344	150.3606872558594	1002.935241699219	738.7215576171875	184.2858428955078	904.225830078125	35.77764892578125	121.1819229125977	990.5548706054688	350.8323974609375	137.0863494873047	1102.237915039062	33.91873931884766	78.64748382568359	1046.333740234375	31.9965763092041	36.13557052612305	1007.356384277344	26.37126731872559	147.0643310546875	853.2456665039062	32.97365951538086	68.78054046630859	
146	1.45	833.12109375	997.0735473632812	83.44625854492188	836.217529296875	990.6180419921875	-90.46768188476562	854.316650390625	1066.9150390625	-7.210851192474365	1101.303100585938	1248.099975585938	-6.148533344268799	839.7959594726562	1178.384155273438	-8.471497535705566	873.7573852539062	1423.354125976562	-25.03532218933105	1036.801025390625	1348.770629882812	-11.51683330535889	825.1494750976562	1285.665649414062	53.63256072998047	860.010498046875	1383.061157226562	-124.3189544677734	958.2919921875	1397.775390625	-176.8668823242188	942.2089233398438	1279.497924804688	-254.7192840576172	958.8464965820312	1076.020874023438	-269.943603515625	887.2467651367188	1061.616577148438	-221.9242095947266	1031.227172851562	853.6279296875	-207.338134765625	1009.702575683594	842.1744995117188	-274.7701110839844	975.91015625	971.9002075195312	-275.6220397949219	1029.452392578125	664.87939453125	-207.3040466308594	1011.422180175781	753.9873046875	-272.2216491699219	1055.828979492188	753.349365234375	-223.0650482177734	939.4198608398438	1405.585205078125	137.4324493408203	934.74951171875	1347.807983398438	205.1256713867188	941.0949096679688	1083.171630859375	261.5170288085938	901.3867797851562	1071.3466796875	174.1801452636719	1054.913452148438	868.452392578125	202.810791015625	1019.544555664062	860.4756469726562	279.5181274414062	972.024169921875	1017.270690917969	272.7607116699219	1078.901733398438	685.0640258789062	200.4589691162109	1096.149780273438	756.4891357421875	216.9406127929688	1052.125854492188	751.0226440429688	271.4120788574219	882.8695678710938	1567.9189453125	55.63451385498047	1036.292358398438	1640.820922851562	-71.31716156005859	1041.776123046875	1635.674560546875	20.62218284606934	877.2007446289062	1565.2001953125	-90.20433807373047	905.6172485351562	944.1485595703125	-185.7521057128906	932.7537841796875	947.5696411132812	186.6125640869141	1052.74072265625	956.3330688476562	117.2877883911133	1042.920776367188	955.3453979492188	-133.9855346679688	984.8792724609375	480.8470153808594	-164.5668182373047	974.7257690429688	621.1912841796875	-183.9334106445312	882.2596435546875	39.41008758544922	-148.5965576171875	926.7416381835938	256.39794921875	-166.9983673095703	1092.676147460938	27.71242141723633	-94.99821472167969	1021.350524902344	20.71506881713867	-54.44528579711914	1006.579772949219	35.35575866699219	-164.3045196533203	839.877685546875	32.33335494995117	-87.93840789794922	986.0093383789062	475.8486328125	150.4403228759766	1003.017333984375	738.6004638671875	184.4493408203125	904.2322387695312	35.79194641113281	121.1444549560547	991.0506591796875	350.7714538574219	137.1589813232422	1102.250610351562	33.88600540161133	78.60775756835938	1046.361938476562	31.95123672485352	36.06791305541992	1007.384460449219	26.4061164855957	147.0191345214844	853.287353515625	33.01671600341797	68.72835540771484	
147	1.46	832.7022094726562	996.9169921875	83.95097351074219	835.9143676757812	990.5777587890625	-89.99352264404297	853.9994506835938	1066.887817382812	-6.670112133026123	1101.144165039062	1248.007446289062	-5.553387641906738	839.6791381835938	1178.456420898438	-7.912389755249023	873.64990234375	1423.359741210938	-24.55736541748047	1036.696044921875	1348.7119140625	-10.96915435791016	824.9366455078125	1285.767456054688	54.12042236328125	859.919677734375	1382.984008789062	-123.6891479492188	958.2781372070312	1397.724243164062	-176.3628082275391	942.0723266601562	1279.427612304688	-254.1485900878906	958.5537719726562	1075.988647460938	-269.3465576171875	886.9790649414062	1061.593994140625	-221.1996459960938	1031.5517578125	853.92138671875	-206.8083343505859	1009.812744140625	842.3284912109375	-274.120849609375	975.7308959960938	971.9197998046875	-274.9883728027344	1030.356323242188	665.1666259765625	-206.5537872314453	1011.841613769531	754.202392578125	-271.5176391601562	1056.415771484375	753.759033203125	-222.5260009765625	939.3135375976562	1405.591796875	137.9337005615234	934.6692504882812	1347.833251953125	205.6470794677734	940.7357788085938	1083.210205078125	262.0860900878906	900.9712524414062	1071.400634765625	174.7846374511719	1054.312377929688	868.3375244140625	203.4154815673828	1019.065551757812	860.4405517578125	280.1805419921875	971.5985717773438	1017.274169921875	273.3440551757812	1078.071044921875	684.9215698242188	201.1035919189453	1095.433227539062	756.3355102539062	217.563720703125	1051.370849609375	750.9230346679688	272.0360412597656	882.6012573242188	1567.912719726562	56.0151252746582	1036.064331054688	1640.773193359375	-71.06758880615234	1041.623046875	1635.707885742188	20.89780807495117	877.0234985351562	1565.0498046875	-89.81388854980469	905.250732421875	944.1552734375	-185.3143615722656	932.5038452148438	947.4098510742188	187.1803588867188	1052.391357421875	956.2600708007812	117.7927398681641	1042.641235351562	955.32666015625	-133.4763488769531	984.9976196289062	480.8678283691406	-164.4513702392578	974.4414672851562	621.2192993164062	-183.7938690185547	882.2787475585938	39.44236755371094	-148.5989227294922	926.8504638671875	256.41064453125	-166.9425659179688	1092.705322265625	27.67784309387207	-95.00586700439453	1021.373229980469	20.72550010681152	-54.47097778320312	1006.597290039062	35.32806777954102	-164.3217315673828	839.8765258789062	32.3837776184082	-87.94355773925781	986.4170532226562	475.7230529785156	150.5452270507812	1003.043579101562	738.438232421875	184.6436614990234	904.234619140625	35.80556869506836	121.1072692871094	991.559326171875	350.7108154296875	137.1948089599609	1102.263427734375	33.85247802734375	78.57000732421875	1046.388061523438	31.90498733520508	36.00098419189453	1007.416076660156	26.44109535217285	146.9734039306641	853.3319702148438	33.06272506713867	68.67340850830078	
